# xmcd CD database file
#
# Track frame offsets:
#	150
#	11292
#	22948
#	35154
#	53274
#	68100
#	78769
#	92402
#	108238
#	119096
#	130094
#	145230
#	163681
#	178155
#	190976
#	206541
#
# Disc length: 2935 seconds
#
# Revision: 0
# Processed by: cddbd v1.5.2PL0 Copyright (c) Steve Scherf et al.
# Submitted via: CDex 1.51
#
DISCID=cc0b7510
DTITLE=Starline Rhythm Boys - Red's Place
DYEAR=2007
DGENRE=Country
TTITLE0=A Fighting Chance
TTITLE1=No Gal Cooks Like Mine
TTITLE2=Red's Place
TTITLE3=It's Anyone's Guess
TTITLE4=(They're) Cutting Back The Work Force
TTITLE5=That's Just A Thought
TTITLE6=The Joke's On You
TTITLE7=Who
TTITLE8=The Family Farm
TTITLE9=Drunk Tank
TTITLE10=Sin and Salvation
TTITLE11=Burning A Hole In My Mind
TTITLE12=The Old Filling Station
TTITLE13=That's Where I Went Wrong
TTITLE14=I'm Fed Up Drinking Here
TTITLE15=A Memory Of Fred
EXTD=YEAR: 2007
EXTT0=
EXTT1=
EXTT2=
EXTT3=
EXTT4=
EXTT5=
EXTT6=
EXTT7=
EXTT8=
EXTT9=
EXTT10=
EXTT11=
EXTT12=
EXTT13=
EXTT14=
EXTT15=
PLAYORDER=
